{
  "accessors": [
    {
      "bufferView": 2,
      "componentType": 5126,
      "count": 10013,
      "max": [
        1.0,
        0.9822900295257568,
        0.40681201219558716
      ],
      "min": [
        -1.0,
        -0.9822900295257568,
        -0.40681201219558716
      ],
      "type": "VEC3"
    },
    {
      "bufferView": 2,
      "byteOffset": 120156,
      "componentType": 5126,
      "count": 10013,
      "max": [
        0.9996579885482788,
        0.9996570944786072,
        0.9999303817749023
      ],
      "min": [
        -0.9993662238121033,
        -0.9999534487724304,
        -0.9998282194137573
      ],
      "type": "VEC3"
    },
    {
      "bufferView": 3,
      "componentType": 5126,
      "count": 10013,
      "max": [
        0.9998943209648132,
        0.9999386072158813,
        0.9997970461845398,
        1.0
      ],
      "min": [
        -0.9999951124191284,
        -0.9998435974121094,
        -0.9999866485595703,
        1.0
      ],
      "type": "VEC4"
    },
    {
      "bufferView": 1,
      "componentType": 5126,
      "count": 10013,
      "max": [
        0.9882810115814209,
        0.965703010559082
      ],
      "min": [
        0.011718999594449997,
        0.011718999594449997
      ],
      "type": "VEC2"
    },
    {
      "bufferView": 0,
      "componentType": 5125,
      "count": 54696,
      "type": "SCALAR"
    }
  ],
  "asset": {
    "extras": {
      "author": "danduw (https://sketchfab.com/danduw)",
      "license": "CC-BY-4.0 (http://creativecommons.org/licenses/by/4.0/)",
      "source": "https://sketchfab.com/3d-models/gremlin-frog-d3a25fe99bb74d42b533deb4930fa885",
      "title": "Gremlin Frog"
    },
    "generator": "Sketchfab-12.68.0",
    "version": "2.0"
  },
  "bufferViews": [
    {
      "buffer": 0,
      "byteLength": 218784,
      "name": "floatBufferViews",
      "target": 34963
    },
    {
      "buffer": 0,
      "byteLength": 80104,
      "byteOffset": 218784,
      "byteStride": 8,
      "name": "floatBufferViews",
      "target": 34962
    },
    {
      "buffer": 0,
      "byteLength": 240312,
      "byteOffset": 298888,
      "byteStride": 12,
      "name": "floatBufferViews",
      "target": 34962
    },
    {
      "buffer": 0,
      "byteLength": 160208,
      "byteOffset": 539200,
      "byteStride": 16,
      "name": "floatBufferViews",
      "target": 34962
    }
  ],
  "buffers": [
    {
      "byteLength": 699408,
      "uri": "scene.bin"
    }
  ],
  "images": [
    {
      "uri": "textures/Lowpoly_lambert1SG_baseColor.jpeg"
    },
    {
      "uri": "textures/Lowpoly_lambert1SG_metallicRoughness.png"
    },
    {
      "uri": "textures/Lowpoly_lambert1SG_normal.png"
    }
  ],
  "materials": [
    {
      "doubleSided": true,
      "name": "Lowpoly_lambert1SG",
      "normalTexture": {
        "index": 2
      },
      "occlusionTexture": {
        "index": 1
      },
      "pbrMetallicRoughness": {
        "baseColorTexture": {
          "index": 0
        },
        "metallicRoughnessTexture": {
          "index": 1
        }
      }
    }
  ],
  "meshes": [
    {
      "name": "defaultMaterial",
      "primitives": [
        {
          "attributes": {
            "NORMAL": 1,
            "POSITION": 0,
            "TANGENT": 2,
            "TEXCOORD_0": 3
          },
          "indices": 4,
          "material": 0,
          "mode": 4
        }
      ]
    }
  ],
  "nodes": [
    {
      "children": [
        1
      ],
      "matrix": [
        1.0,
        0.0,
        0.0,
        0.0,
        0.0,
        2.220446049250313e-16,
        -1.0,
        0.0,
        0.0,
        1.0,
        2.220446049250313e-16,
        0.0,
        0.0,
        0.0,
        0.0,
        1.0
      ],
      "name": "Sketchfab_model"
    },
    {
      "children": [
        2
      ],
      "matrix": [
        1.0,
        0.0,
        0.0,
        0.0,
        0.0,
        -4.371139006309477e-08,
        0.999999999999999,
        0.0,
        0.0,
        -0.999999999999999,
        -4.371139006309477e-08,
        0.0,
        0.0,
        0.0,
        0.0,
        1.0
      ],
      "name": "Collada visual scene group"
    },
    {
      "children": [
        3
      ],
      "name": "g"
    },
    {
      "mesh": 0,
      "name": "defaultMaterial"
    }
  ],
  "samplers": [
    {
      "magFilter": 9729,
      "minFilter": 9987,
      "wrapS": 10497,
      "wrapT": 10497
    }
  ],
  "scene": 0,
  "scenes": [
    {
      "name": "Sketchfab_Scene",
      "nodes": [
        0
      ]
    }
  ],
  "textures": [
    {
      "sampler": 0,
      "source": 0
    },
    {
      "sampler": 0,
      "source": 1
    },
    {
      "sampler": 0,
      "source": 2
    }
  ]
}
